# 3ds Max Wavefront OBJ Exporter v0.97b - (c)2007 guruware
# File Created: 20.04.2021 14:12:57

mtllib DumplingIn.mtl

#
# object OilTank001
#

v  0.0001 3.8161 0.0000
v  1.8382 3.6385 0.0000
v  1.5919 3.6385 -0.9190
v  0.9191 3.6385 -1.5919
v  0.0001 3.6385 -1.8380
v  -0.9190 3.6385 -1.5919
v  -1.5918 3.6385 -0.9190
v  -1.8380 3.6385 0.0000
v  -1.5918 3.6385 0.9191
v  -0.9190 3.6385 1.5919
v  0.0001 3.6385 1.8382
v  0.9191 3.6385 1.5919
v  1.5919 3.6385 0.9191
v  3.6082 3.1121 0.0000
v  3.1248 3.1121 -1.8041
v  1.8042 3.1121 -3.1247
v  0.0001 3.1121 -3.6082
v  -1.8040 3.1121 -3.1247
v  -3.1247 3.1121 -1.8041
v  -3.6081 3.1121 0.0000
v  -3.1247 3.1121 1.8041
v  -1.8040 3.1121 3.1248
v  0.0001 3.1121 3.6082
v  1.8042 3.1121 3.1248
v  3.1248 3.1121 1.8041
v  5.2447 2.2565 0.0000
v  4.5421 2.2565 -2.6223
v  2.6224 2.2565 -4.5420
v  0.0001 2.2565 -5.2446
v  -2.6223 2.2565 -4.5420
v  -4.5419 2.2565 -2.6223
v  -5.2446 2.2565 0.0000
v  -4.5419 2.2565 2.6224
v  -2.6223 2.2565 4.5420
v  0.0001 2.2565 5.2447
v  2.6224 2.2565 4.5420
v  4.5421 2.2565 2.6224
v  6.6871 1.1034 0.0000
v  5.7912 1.1034 -3.3435
v  3.3436 1.1034 -5.7911
v  0.0001 1.1034 -6.6870
v  -3.3435 1.1034 -5.7911
v  -5.7911 1.1034 -3.3435
v  -6.6870 1.1034 0.0000
v  -5.7911 1.1034 3.3436
v  -3.3435 1.1034 5.7912
v  0.0001 1.1034 6.6870
v  3.3436 1.1034 5.7912
v  5.7912 1.1034 3.3436
v  6.6871 -1.1034 0.0000
v  5.7912 -1.1034 -3.3435
v  3.3436 -1.1034 -5.7911
v  0.0001 -1.1034 -6.6870
v  -3.3435 -1.1034 -5.7911
v  -5.7911 -1.1034 -3.3435
v  -6.6870 -1.1034 0.0000
v  -5.7911 -1.1034 3.3436
v  -3.3435 -1.1034 5.7912
v  0.0001 -1.1034 6.6870
v  3.3436 -1.1034 5.7912
v  5.7912 -1.1034 3.3436
v  5.2447 -2.2565 0.0000
v  4.5421 -2.2565 -2.6223
v  2.6224 -2.2565 -4.5420
v  0.0001 -2.2565 -5.2446
v  -2.6223 -2.2565 -4.5420
v  -4.5419 -2.2565 -2.6223
v  -5.2446 -2.2565 0.0000
v  -4.5419 -2.2565 2.6224
v  -2.6223 -2.2565 4.5420
v  0.0001 -2.2565 5.2447
v  2.6224 -2.2565 4.5420
v  4.5421 -2.2565 2.6224
v  3.6082 -3.1121 0.0000
v  3.1248 -3.1121 -1.8041
v  1.8042 -3.1121 -3.1247
v  0.0001 -3.1121 -3.6082
v  -1.8040 -3.1121 -3.1247
v  -3.1247 -3.1121 -1.8041
v  -3.6081 -3.1121 0.0000
v  -3.1247 -3.1121 1.8041
v  -1.8040 -3.1121 3.1248
v  0.0001 -3.1121 3.6082
v  1.8042 -3.1121 3.1248
v  3.1248 -3.1121 1.8041
v  1.8382 -3.6385 0.0000
v  1.5919 -3.6385 -0.9190
v  0.9191 -3.6385 -1.5919
v  0.0001 -3.6385 -1.8380
v  -0.9190 -3.6385 -1.5919
v  -1.5918 -3.6385 -0.9190
v  -1.8380 -3.6385 0.0000
v  -1.5918 -3.6385 0.9191
v  -0.9190 -3.6385 1.5919
v  0.0001 -3.6385 1.8382
v  0.9191 -3.6385 1.5919
v  1.5919 -3.6385 0.9191
v  0.0001 -3.8161 0.0000
# 98 vertices

vn 0.0000 1.0000 -0.0000
vn 0.2068 0.9784 -0.0000
vn 0.1791 0.9784 -0.1034
vn 0.1034 0.9784 -0.1791
vn 0.0000 0.9784 -0.2068
vn -0.1034 0.9784 -0.1791
vn -0.1791 0.9784 -0.1034
vn -0.2068 0.9784 -0.0000
vn -0.1791 0.9784 0.1034
vn -0.1034 0.9784 0.1791
vn 0.0000 0.9784 0.2068
vn 0.1034 0.9784 0.1791
vn 0.1791 0.9784 0.1034
vn 0.3895 0.9210 -0.0000
vn 0.3373 0.9210 -0.1947
vn 0.1947 0.9210 -0.3373
vn 0.0000 0.9210 -0.3895
vn -0.1947 0.9210 -0.3373
vn -0.3373 0.9210 -0.1947
vn -0.3895 0.9210 -0.0000
vn -0.3373 0.9210 0.1947
vn -0.1947 0.9210 0.3373
vn 0.0000 0.9210 0.3895
vn 0.1947 0.9210 0.3373
vn 0.3373 0.9210 0.1947
vn 0.5574 0.8302 -0.0000
vn 0.4827 0.8302 -0.2787
vn 0.2787 0.8302 -0.4827
vn 0.0000 0.8302 -0.5574
vn -0.2787 0.8302 -0.4827
vn -0.4827 0.8302 -0.2787
vn -0.5574 0.8302 -0.0000
vn -0.4827 0.8302 0.2787
vn -0.2787 0.8302 0.4827
vn 0.0000 0.8302 0.5574
vn 0.2787 0.8302 0.4827
vn 0.4827 0.8302 0.2787
vn 0.6244 0.7811 -0.0000
vn 0.5408 0.7811 -0.3122
vn 0.3122 0.7811 -0.5408
vn 0.0000 0.7811 -0.6244
vn -0.3122 0.7811 -0.5408
vn -0.5408 0.7811 -0.3122
vn -0.6244 0.7811 -0.0000
vn -0.5408 0.7811 0.3122
vn -0.3122 0.7811 0.5408
vn 0.0000 0.7811 0.6244
vn 0.3122 0.7811 0.5408
vn 0.5408 0.7811 0.3122
vn 1.0000 0.0000 -0.0000
vn 0.8660 0.0000 -0.5000
vn 0.5000 0.0000 -0.8660
vn 0.0000 0.0000 -1.0000
vn -0.5000 0.0000 -0.8660
vn -0.8660 0.0000 -0.5000
vn -1.0000 0.0000 -0.0000
vn -0.8660 0.0000 0.5000
vn -0.5000 0.0000 0.8660
vn 0.0000 0.0000 1.0000
vn 0.5000 0.0000 0.8660
vn 0.8660 0.0000 0.5000
vn 0.5574 -0.8302 -0.0000
vn 0.4827 -0.8302 -0.2787
vn 0.5408 -0.7811 -0.3122
vn 0.6244 -0.7811 -0.0000
vn 0.2787 -0.8302 -0.4827
vn 0.3122 -0.7811 -0.5408
vn 0.0000 -0.8302 -0.5574
vn 0.0000 -0.7811 -0.6244
vn -0.2787 -0.8302 -0.4827
vn -0.3122 -0.7811 -0.5408
vn -0.4827 -0.8302 -0.2787
vn -0.5408 -0.7811 -0.3122
vn -0.5574 -0.8302 -0.0000
vn -0.6244 -0.7811 -0.0000
vn -0.4827 -0.8302 0.2787
vn -0.5408 -0.7811 0.3122
vn -0.2787 -0.8302 0.4827
vn -0.3122 -0.7811 0.5408
vn 0.0000 -0.8302 0.5574
vn 0.0000 -0.7811 0.6244
vn 0.2787 -0.8302 0.4827
vn 0.3122 -0.7811 0.5408
vn 0.4827 -0.8302 0.2787
vn 0.5408 -0.7811 0.3122
vn 0.3895 -0.9210 -0.0000
vn 0.3373 -0.9210 -0.1947
vn 0.1947 -0.9210 -0.3373
vn 0.0000 -0.9210 -0.3895
vn -0.1947 -0.9210 -0.3373
vn -0.3373 -0.9210 -0.1947
vn -0.3895 -0.9210 -0.0000
vn -0.3373 -0.9210 0.1947
vn -0.1947 -0.9210 0.3373
vn 0.0000 -0.9210 0.3895
vn 0.1947 -0.9210 0.3373
vn 0.3373 -0.9210 0.1947
vn 0.2068 -0.9784 -0.0000
vn 0.1791 -0.9784 -0.1034
vn 0.1034 -0.9784 -0.1791
vn 0.0000 -0.9784 -0.2068
vn -0.1034 -0.9784 -0.1791
vn -0.1791 -0.9784 -0.1034
vn -0.2068 -0.9784 -0.0000
vn -0.1791 -0.9784 0.1034
vn -0.1034 -0.9784 0.1791
vn 0.0000 -0.9784 0.2068
vn 0.1034 -0.9784 0.1791
vn 0.1791 -0.9784 0.1034
vn 0.0000 -1.0000 -0.0000
# 110 vertex normals

vt 0.5000 0.5000 0.0000
vt 0.6374 0.5000 0.0000
vt 0.6190 0.5687 0.0000
vt 0.5687 0.6190 0.0000
vt 0.5000 0.6374 0.0000
vt 0.4313 0.6190 0.0000
vt 0.3810 0.5687 0.0000
vt 0.3626 0.5000 0.0000
vt 0.3810 0.4313 0.0000
vt 0.4313 0.3810 0.0000
vt 0.5000 0.3626 0.0000
vt 0.5687 0.3810 0.0000
vt 0.6190 0.4313 0.0000
vt 0.7698 0.5000 0.0000
vt 0.7336 0.6349 0.0000
vt 0.6349 0.7336 0.0000
vt 0.5000 0.7698 0.0000
vt 0.3651 0.7336 0.0000
vt 0.2664 0.6349 0.0000
vt 0.2302 0.5000 0.0000
vt 0.2664 0.3651 0.0000
vt 0.3651 0.2664 0.0000
vt 0.5000 0.2302 0.0000
vt 0.6349 0.2664 0.0000
vt 0.7336 0.3651 0.0000
vt 0.8922 0.5000 0.0000
vt 0.8396 0.6961 0.0000
vt 0.6961 0.8396 0.0000
vt 0.5000 0.8922 0.0000
vt 0.3039 0.8396 0.0000
vt 0.1604 0.6961 0.0000
vt 0.1078 0.5000 0.0000
vt 0.1604 0.3039 0.0000
vt 0.3039 0.1604 0.0000
vt 0.5000 0.1078 0.0000
vt 0.6961 0.1604 0.0000
vt 0.8396 0.3039 0.0000
vt 1.0000 0.5000 0.0000
vt 0.9330 0.7500 0.0000
vt 0.7500 0.9330 0.0000
vt 0.5000 1.0000 0.0000
vt 0.2500 0.9330 0.0000
vt 0.0670 0.7500 0.0000
vt 0.0000 0.5000 0.0000
vt 0.0670 0.2500 0.0000
vt 0.2500 0.0670 0.0000
vt 0.5000 0.0000 0.0000
vt 0.7500 0.0670 0.0000
vt 0.9330 0.2500 0.0000
vt 0.0000 0.0000 0.0000
vt 0.0833 0.0000 0.0000
vt 0.0833 1.0000 0.0000
vt 0.0000 1.0000 0.0000
vt 0.1667 0.0000 0.0000
vt 0.1667 1.0000 0.0000
vt 0.2500 0.0000 0.0000
vt 0.2500 1.0000 0.0000
vt 0.3333 0.0000 0.0000
vt 0.3333 1.0000 0.0000
vt 0.4167 0.0000 0.0000
vt 0.4167 1.0000 0.0000
vt 0.5833 0.0000 0.0000
vt 0.5833 1.0000 0.0000
vt 0.6667 0.0000 0.0000
vt 0.6667 1.0000 0.0000
vt 0.7500 0.0000 0.0000
vt 0.7500 1.0000 0.0000
vt 0.8333 0.0000 0.0000
vt 0.8333 1.0000 0.0000
vt 0.9167 0.0000 0.0000
vt 0.9167 1.0000 0.0000
vt 1.0000 0.0000 0.0000
vt 1.0000 1.0000 0.0000
# 73 texture coords

g OilTank001
usemtl _DumplingInwire_154215229
s 4
f 1/1/1 2/2/2 3/3/3 
f 1/1/1 3/3/3 4/4/4 
f 1/1/1 4/4/4 5/5/5 
f 1/1/1 5/5/5 6/6/6 
f 1/1/1 6/6/6 7/7/7 
f 1/1/1 7/7/7 8/8/8 
f 1/1/1 8/8/8 9/9/9 
f 1/1/1 9/9/9 10/10/10 
f 1/1/1 10/10/10 11/11/11 
f 1/1/1 11/11/11 12/12/12 
f 1/1/1 12/12/12 13/13/13 
f 1/1/1 13/13/13 2/2/2 
f 14/14/14 15/15/15 3/3/3 2/2/2 
f 15/15/15 16/16/16 4/4/4 3/3/3 
f 16/16/16 17/17/17 5/5/5 4/4/4 
f 17/17/17 18/18/18 6/6/6 5/5/5 
f 18/18/18 19/19/19 7/7/7 6/6/6 
f 19/19/19 20/20/20 8/8/8 7/7/7 
f 20/20/20 21/21/21 9/9/9 8/8/8 
f 21/21/21 22/22/22 10/10/10 9/9/9 
f 22/22/22 23/23/23 11/11/11 10/10/10 
f 23/23/23 24/24/24 12/12/12 11/11/11 
f 24/24/24 25/25/25 13/13/13 12/12/12 
f 25/25/25 14/14/14 2/2/2 13/13/13 
f 26/26/26 27/27/27 15/15/15 14/14/14 
f 27/27/27 28/28/28 16/16/16 15/15/15 
f 28/28/28 29/29/29 17/17/17 16/16/16 
f 29/29/29 30/30/30 18/18/18 17/17/17 
f 30/30/30 31/31/31 19/19/19 18/18/18 
f 31/31/31 32/32/32 20/20/20 19/19/19 
f 32/32/32 33/33/33 21/21/21 20/20/20 
f 33/33/33 34/34/34 22/22/22 21/21/21 
f 34/34/34 35/35/35 23/23/23 22/22/22 
f 35/35/35 36/36/36 24/24/24 23/23/23 
f 36/36/36 37/37/37 25/25/25 24/24/24 
f 37/37/37 26/26/26 14/14/14 25/25/25 
f 38/38/38 39/39/39 27/27/27 26/26/26 
f 39/39/39 40/40/40 28/28/28 27/27/27 
f 40/40/40 41/41/41 29/29/29 28/28/28 
f 41/41/41 42/42/42 30/30/30 29/29/29 
f 42/42/42 43/43/43 31/31/31 30/30/30 
f 43/43/43 44/44/44 32/32/32 31/31/31 
f 44/44/44 45/45/45 33/33/33 32/32/32 
f 45/45/45 46/46/46 34/34/34 33/33/33 
f 46/46/46 47/47/47 35/35/35 34/34/34 
f 47/47/47 48/48/48 36/36/36 35/35/35 
f 48/48/48 49/49/49 37/37/37 36/36/36 
f 49/49/49 38/38/38 26/26/26 37/37/37 
s 8
f 50/50/50 51/51/51 39/52/51 38/53/50 
f 51/51/51 52/54/52 40/55/52 39/52/51 
f 52/54/52 53/56/53 41/57/53 40/55/52 
f 53/56/53 54/58/54 42/59/54 41/57/53 
f 54/58/54 55/60/55 43/61/55 42/59/54 
f 55/60/55 56/47/56 44/41/56 43/61/55 
f 56/47/56 57/62/57 45/63/57 44/41/56 
f 57/62/57 58/64/58 46/65/58 45/63/57 
f 58/64/58 59/66/59 47/67/59 46/65/58 
f 59/66/59 60/68/60 48/69/60 47/67/59 
f 60/68/60 61/70/61 49/71/61 48/69/60 
f 61/70/61 50/72/50 38/73/50 49/71/61 
s 4
f 62/26/62 63/27/63 51/39/64 50/38/65 
f 63/27/63 64/28/66 52/40/67 51/39/64 
f 64/28/66 65/29/68 53/41/69 52/40/67 
f 65/29/68 66/30/70 54/42/71 53/41/69 
f 66/30/70 67/31/72 55/43/73 54/42/71 
f 67/31/72 68/32/74 56/44/75 55/43/73 
f 68/32/74 69/33/76 57/45/77 56/44/75 
f 69/33/76 70/34/78 58/46/79 57/45/77 
f 70/34/78 71/35/80 59/47/81 58/46/79 
f 71/35/80 72/36/82 60/48/83 59/47/81 
f 72/36/82 73/37/84 61/49/85 60/48/83 
f 73/37/84 62/26/62 50/38/65 61/49/85 
f 74/14/86 75/15/87 63/27/63 62/26/62 
f 75/15/87 76/16/88 64/28/66 63/27/63 
f 76/16/88 77/17/89 65/29/68 64/28/66 
f 77/17/89 78/18/90 66/30/70 65/29/68 
f 78/18/90 79/19/91 67/31/72 66/30/70 
f 79/19/91 80/20/92 68/32/74 67/31/72 
f 80/20/92 81/21/93 69/33/76 68/32/74 
f 81/21/93 82/22/94 70/34/78 69/33/76 
f 82/22/94 83/23/95 71/35/80 70/34/78 
f 83/23/95 84/24/96 72/36/82 71/35/80 
f 84/24/96 85/25/97 73/37/84 72/36/82 
f 85/25/97 74/14/86 62/26/62 73/37/84 
f 86/2/98 87/3/99 75/15/87 74/14/86 
f 87/3/99 88/4/100 76/16/88 75/15/87 
f 88/4/100 89/5/101 77/17/89 76/16/88 
f 89/5/101 90/6/102 78/18/90 77/17/89 
f 90/6/102 91/7/103 79/19/91 78/18/90 
f 91/7/103 92/8/104 80/20/92 79/19/91 
f 92/8/104 93/9/105 81/21/93 80/20/92 
f 93/9/105 94/10/106 82/22/94 81/21/93 
f 94/10/106 95/11/107 83/23/95 82/22/94 
f 95/11/107 96/12/108 84/24/96 83/23/95 
f 96/12/108 97/13/109 85/25/97 84/24/96 
f 97/13/109 86/2/98 74/14/86 85/25/97 
f 86/2/98 98/1/110 87/3/99 
f 87/3/99 98/1/110 88/4/100 
f 88/4/100 98/1/110 89/5/101 
f 89/5/101 98/1/110 90/6/102 
f 90/6/102 98/1/110 91/7/103 
f 91/7/103 98/1/110 92/8/104 
f 92/8/104 98/1/110 93/9/105 
f 93/9/105 98/1/110 94/10/106 
f 94/10/106 98/1/110 95/11/107 
f 95/11/107 98/1/110 96/12/108 
f 96/12/108 98/1/110 97/13/109 
f 97/13/109 98/1/110 86/2/98 
# 84 polygons - 24 triangles

