# 3ds Max Wavefront OBJ Exporter v0.97b - (c)2007 guruware
# File Created: 16.04.2021 11:37:09

mtllib DumplingSkin.mtl

#
# object Cylinder005
#

v  -5.3604 -0.1099 -21.4996
v  2.3161 -0.1099 -22.0364
v  2.3161 -0.1832 -22.0364
v  -5.3604 -0.1832 -21.4996
v  -12.3904 -0.1099 -18.3697
v  -12.3904 -0.1832 -18.3697
v  -17.9260 -0.1099 -13.0240
v  -17.9260 -0.1832 -13.0240
v  -21.2994 -0.1099 -6.1075
v  -21.2994 -0.1832 -6.1075
v  -22.1039 -0.1099 1.5457
v  -22.1039 -0.1832 1.5457
v  -20.2421 -0.1099 9.0124
v  -20.2421 -0.1832 9.0124
v  -15.9389 -0.1099 15.3921
v  -15.9389 -0.1832 15.3921
v  -9.7133 -0.1099 19.9153
v  -9.7133 -0.1832 19.9153
v  -2.3161 -0.1099 22.0364
v  -2.3161 -0.1832 22.0364
v  5.3605 -0.1099 21.4996
v  5.3605 -0.1832 21.4996
v  12.3905 -0.1099 18.3697
v  12.3905 -0.1832 18.3697
v  17.9261 -0.1099 13.0240
v  17.9261 -0.1832 13.0240
v  21.2995 -0.1099 6.1075
v  21.2995 -0.1832 6.1075
v  22.1039 -0.1099 -1.5456
v  22.1039 -0.1832 -1.5456
v  20.2422 -0.1099 -9.0124
v  20.2422 -0.1832 -9.0124
v  15.9391 -0.1099 -15.3921
v  15.9391 -0.1832 -15.3921
v  9.7133 -0.1099 -19.9153
v  9.7133 -0.1832 -19.9153
v  -5.3604 -0.0367 -21.4996
v  2.3161 -0.0367 -22.0364
v  -12.3904 -0.0367 -18.3697
v  -17.9260 -0.0367 -13.0240
v  -21.2994 -0.0367 -6.1075
v  -22.1039 -0.0367 1.5457
v  -20.2421 -0.0367 9.0124
v  -15.9389 -0.0367 15.3921
v  -9.7133 -0.0367 19.9153
v  -2.3161 -0.0367 22.0364
v  5.3605 -0.0367 21.4996
v  12.3905 -0.0367 18.3697
v  17.9261 -0.0367 13.0240
v  21.2995 -0.0367 6.1075
v  22.1039 -0.0367 -1.5456
v  20.2422 -0.0367 -9.0124
v  15.9391 -0.0367 -15.3921
v  9.7133 -0.0367 -19.9153
v  -5.3604 0.0367 -21.4996
v  2.3161 0.0367 -22.0364
v  -12.3904 0.0367 -18.3697
v  -17.9260 0.0367 -13.0240
v  -21.2994 0.0367 -6.1075
v  -22.1039 0.0367 1.5457
v  -20.2421 0.0367 9.0124
v  -15.9389 0.0367 15.3921
v  -9.7133 0.0367 19.9153
v  -2.3161 0.0367 22.0364
v  5.3605 0.0367 21.4996
v  12.3905 0.0367 18.3697
v  17.9261 0.0367 13.0240
v  21.2995 0.0367 6.1075
v  22.1039 0.0367 -1.5456
v  20.2422 0.0367 -9.0124
v  15.9391 0.0367 -15.3921
v  9.7133 0.0367 -19.9153
v  -5.3604 0.1099 -21.4996
v  2.3161 0.1099 -22.0364
v  -12.3904 0.1099 -18.3697
v  -17.9260 0.1099 -13.0240
v  -21.2994 0.1099 -6.1075
v  -22.1039 0.1099 1.5457
v  -20.2421 0.1099 9.0124
v  -15.9389 0.1099 15.3921
v  -9.7133 0.1099 19.9153
v  -2.3161 0.1099 22.0364
v  5.3605 0.1099 21.4996
v  12.3905 0.1099 18.3697
v  17.9261 0.1099 13.0240
v  21.2995 0.1099 6.1075
v  22.1039 0.1099 -1.5456
v  20.2422 0.1099 -9.0124
v  15.9391 0.1099 -15.3921
v  9.7133 0.1099 -19.9153
v  -5.3604 0.1832 -21.4996
v  2.3161 0.1832 -22.0364
v  -12.3904 0.1832 -18.3697
v  -17.9260 0.1832 -13.0240
v  -21.2994 0.1832 -6.1075
v  -22.1039 0.1832 1.5457
v  -20.2421 0.1832 9.0124
v  -15.9389 0.1832 15.3921
v  -9.7133 0.1832 19.9153
v  -2.3161 0.1832 22.0364
v  5.3605 0.1832 21.4996
v  12.3905 0.1832 18.3697
v  17.9261 0.1832 13.0240
v  21.2995 0.1832 6.1075
v  22.1039 0.1832 -1.5456
v  20.2422 0.1832 -9.0124
v  15.9391 0.1832 -15.3921
v  9.7133 0.1832 -19.9153
# 108 vertices

vn -0.2419 0.0000 -0.9703
vn 0.1045 0.0000 -0.9945
vn -0.5592 0.0000 -0.8290
vn -0.8090 0.0000 -0.5878
vn -0.9613 0.0000 -0.2756
vn -0.9976 0.0000 0.0698
vn -0.9135 0.0000 0.4067
vn -0.7193 0.0000 0.6947
vn -0.4384 0.0000 0.8988
vn -0.1045 0.0000 0.9945
vn 0.2419 0.0000 0.9703
vn 0.5592 0.0000 0.8290
vn 0.8090 0.0000 0.5878
vn 0.9613 0.0000 0.2756
vn 0.9976 0.0000 -0.0698
vn 0.9135 0.0000 -0.4067
vn 0.7193 0.0000 -0.6947
vn 0.4384 0.0000 -0.8988
vn 0.0000 -1.0000 -0.0000
vn 0.0000 1.0000 -0.0000
# 20 vertex normals

vt 0.8056 0.2000 1.0000
vt 0.7500 0.2000 1.0000
vt 0.7500 0.0000 1.0000
vt 0.8056 0.0000 1.0000
vt 0.8611 0.2000 1.0000
vt 0.8611 0.0000 1.0000
vt 0.9167 0.2000 1.0000
vt 0.9167 0.0000 1.0000
vt 0.9722 0.2000 1.0000
vt 0.9722 0.0000 1.0000
vt 1.0278 0.2000 1.0000
vt 1.0278 0.0000 1.0000
vt 0.0833 0.2000 1.0000
vt 0.0278 0.2000 1.0000
vt 0.0278 0.0000 1.0000
vt 0.0833 0.0000 1.0000
vt 0.1389 0.2000 1.0000
vt 0.1389 0.0000 1.0000
vt 0.1944 0.2000 1.0000
vt 0.1944 0.0000 1.0000
vt 0.2500 0.2000 1.0000
vt 0.2500 0.0000 1.0000
vt 0.3056 0.2000 1.0000
vt 0.3056 0.0000 1.0000
vt 0.3611 0.2000 1.0000
vt 0.3611 0.0000 1.0000
vt 0.4167 0.2000 1.0000
vt 0.4167 0.0000 1.0000
vt 0.4722 0.2000 1.0000
vt 0.4722 0.0000 1.0000
vt 0.5278 0.2000 1.0000
vt 0.5278 0.0000 1.0000
vt 0.5833 0.2000 1.0000
vt 0.5833 0.0000 1.0000
vt 0.6389 0.2000 1.0000
vt 0.6389 0.0000 1.0000
vt 0.6944 0.2000 1.0000
vt 0.6944 0.0000 1.0000
vt 0.8056 0.4000 1.0000
vt 0.7500 0.4000 1.0000
vt 0.8611 0.4000 1.0000
vt 0.9167 0.4000 1.0000
vt 0.9722 0.4000 1.0000
vt 1.0278 0.4000 1.0000
vt 0.0833 0.4000 1.0000
vt 0.0278 0.4000 1.0000
vt 0.1389 0.4000 1.0000
vt 0.1944 0.4000 1.0000
vt 0.2500 0.4000 1.0000
vt 0.3056 0.4000 1.0000
vt 0.3611 0.4000 1.0000
vt 0.4167 0.4000 1.0000
vt 0.4722 0.4000 1.0000
vt 0.5278 0.4000 1.0000
vt 0.5833 0.4000 1.0000
vt 0.6389 0.4000 1.0000
vt 0.6944 0.4000 1.0000
vt 0.8056 0.6000 1.0000
vt 0.7500 0.6000 1.0000
vt 0.8611 0.6000 1.0000
vt 0.9167 0.6000 1.0000
vt 0.9722 0.6000 1.0000
vt 1.0278 0.6000 1.0000
vt 0.0833 0.6000 1.0000
vt 0.0278 0.6000 1.0000
vt 0.1389 0.6000 1.0000
vt 0.1944 0.6000 1.0000
vt 0.2500 0.6000 1.0000
vt 0.3056 0.6000 1.0000
vt 0.3611 0.6000 1.0000
vt 0.4167 0.6000 1.0000
vt 0.4722 0.6000 1.0000
vt 0.5278 0.6000 1.0000
vt 0.5833 0.6000 1.0000
vt 0.6389 0.6000 1.0000
vt 0.6944 0.6000 1.0000
vt 0.8056 0.8000 1.0000
vt 0.7500 0.8000 1.0000
vt 0.8611 0.8000 1.0000
vt 0.9167 0.8000 1.0000
vt 0.9722 0.8000 1.0000
vt 1.0278 0.8000 1.0000
vt 0.0833 0.8000 1.0000
vt 0.0278 0.8000 1.0000
vt 0.1389 0.8000 1.0000
vt 0.1944 0.8000 1.0000
vt 0.2500 0.8000 1.0000
vt 0.3056 0.8000 1.0000
vt 0.3611 0.8000 1.0000
vt 0.4167 0.8000 1.0000
vt 0.4722 0.8000 1.0000
vt 0.5278 0.8000 1.0000
vt 0.5833 0.8000 1.0000
vt 0.6389 0.8000 1.0000
vt 0.6944 0.8000 1.0000
vt 0.8056 1.0000 1.0000
vt 0.7500 1.0000 1.0000
vt 0.8611 1.0000 1.0000
vt 0.9167 1.0000 1.0000
vt 0.9722 1.0000 1.0000
vt 1.0278 1.0000 1.0000
vt 0.0833 1.0000 1.0000
vt 0.0278 1.0000 1.0000
vt 0.1389 1.0000 1.0000
vt 0.1944 1.0000 1.0000
vt 0.2500 1.0000 1.0000
vt 0.3056 1.0000 1.0000
vt 0.3611 1.0000 1.0000
vt 0.4167 1.0000 1.0000
vt 0.4722 1.0000 1.0000
vt 0.5278 1.0000 1.0000
vt 0.5833 1.0000 1.0000
vt 0.6389 1.0000 1.0000
vt 0.6944 1.0000 1.0000
vt 0.8214 0.8830 -0.2500
vt 0.9330 0.7500 -0.2500
vt 0.9924 0.5868 -0.2500
vt 0.5000 1.0000 -0.2500
vt 0.9924 0.4132 -0.2500
vt 0.9330 0.2500 -0.2500
vt 0.6710 0.0302 -0.2500
vt 0.8214 0.1170 -0.2500
vt 0.5000 0.0000 -0.2500
vt 0.3290 0.0302 -0.2500
vt 0.0670 0.2500 -0.2500
vt 0.1786 0.1170 -0.2500
vt 0.0076 0.4132 -0.2500
vt 0.0076 0.5868 -0.2500
vt 0.1786 0.8830 -0.2500
vt 0.0670 0.7500 -0.2500
vt 0.3290 0.9698 -0.2500
vt 0.6710 0.9698 -0.2500
vt 0.3290 0.9698 0.2500
vt 0.1786 0.8830 0.2500
vt 0.0670 0.7500 0.2500
vt 0.6710 0.9698 0.2500
vt 0.0076 0.5868 0.2500
vt 0.0076 0.4132 0.2500
vt 0.1786 0.1170 0.2500
vt 0.0670 0.2500 0.2500
vt 0.3290 0.0302 0.2500
vt 0.5000 0.0000 0.2500
vt 0.8214 0.1170 0.2500
vt 0.6710 0.0302 0.2500
vt 0.9330 0.2500 0.2500
vt 0.9924 0.4132 0.2500
vt 0.9330 0.7500 0.2500
vt 0.9924 0.5868 0.2500
vt 0.8214 0.8830 0.2500
vt 0.5000 1.0000 0.2500
# 150 texture coords

g Cylinder005
usemtl _DumplingSkin_DumplingSkin01___Default
s 8
f 1/1/1 2/2/2 3/3/2 4/4/1 
f 5/5/3 1/1/1 4/4/1 6/6/3 
f 7/7/4 5/5/3 6/6/3 8/8/4 
f 9/9/5 7/7/4 8/8/4 10/10/5 
f 11/11/6 9/9/5 10/10/5 12/12/6 
f 13/13/7 11/14/6 12/15/6 14/16/7 
f 15/17/8 13/13/7 14/16/7 16/18/8 
f 17/19/9 15/17/8 16/18/8 18/20/9 
f 19/21/10 17/19/9 18/20/9 20/22/10 
f 21/23/11 19/21/10 20/22/10 22/24/11 
f 23/25/12 21/23/11 22/24/11 24/26/12 
f 25/27/13 23/25/12 24/26/12 26/28/13 
f 27/29/14 25/27/13 26/28/13 28/30/14 
f 29/31/15 27/29/14 28/30/14 30/32/15 
f 31/33/16 29/31/15 30/32/15 32/34/16 
f 33/35/17 31/33/16 32/34/16 34/36/17 
f 35/37/18 33/35/17 34/36/17 36/38/18 
f 2/2/2 35/37/18 36/38/18 3/3/2 
f 37/39/1 38/40/2 2/2/2 1/1/1 
f 39/41/3 37/39/1 1/1/1 5/5/3 
f 40/42/4 39/41/3 5/5/3 7/7/4 
f 41/43/5 40/42/4 7/7/4 9/9/5 
f 42/44/6 41/43/5 9/9/5 11/11/6 
f 43/45/7 42/46/6 11/14/6 13/13/7 
f 44/47/8 43/45/7 13/13/7 15/17/8 
f 45/48/9 44/47/8 15/17/8 17/19/9 
f 46/49/10 45/48/9 17/19/9 19/21/10 
f 47/50/11 46/49/10 19/21/10 21/23/11 
f 48/51/12 47/50/11 21/23/11 23/25/12 
f 49/52/13 48/51/12 23/25/12 25/27/13 
f 50/53/14 49/52/13 25/27/13 27/29/14 
f 51/54/15 50/53/14 27/29/14 29/31/15 
f 52/55/16 51/54/15 29/31/15 31/33/16 
f 53/56/17 52/55/16 31/33/16 33/35/17 
f 54/57/18 53/56/17 33/35/17 35/37/18 
f 38/40/2 54/57/18 35/37/18 2/2/2 
f 55/58/1 56/59/2 38/40/2 37/39/1 
f 57/60/3 55/58/1 37/39/1 39/41/3 
f 58/61/4 57/60/3 39/41/3 40/42/4 
f 59/62/5 58/61/4 40/42/4 41/43/5 
f 60/63/6 59/62/5 41/43/5 42/44/6 
f 61/64/7 60/65/6 42/46/6 43/45/7 
f 62/66/8 61/64/7 43/45/7 44/47/8 
f 63/67/9 62/66/8 44/47/8 45/48/9 
f 64/68/10 63/67/9 45/48/9 46/49/10 
f 65/69/11 64/68/10 46/49/10 47/50/11 
f 66/70/12 65/69/11 47/50/11 48/51/12 
f 67/71/13 66/70/12 48/51/12 49/52/13 
f 68/72/14 67/71/13 49/52/13 50/53/14 
f 69/73/15 68/72/14 50/53/14 51/54/15 
f 70/74/16 69/73/15 51/54/15 52/55/16 
f 71/75/17 70/74/16 52/55/16 53/56/17 
f 72/76/18 71/75/17 53/56/17 54/57/18 
f 56/59/2 72/76/18 54/57/18 38/40/2 
f 73/77/1 74/78/2 56/59/2 55/58/1 
f 75/79/3 73/77/1 55/58/1 57/60/3 
f 76/80/4 75/79/3 57/60/3 58/61/4 
f 77/81/5 76/80/4 58/61/4 59/62/5 
f 78/82/6 77/81/5 59/62/5 60/63/6 
f 79/83/7 78/84/6 60/65/6 61/64/7 
f 80/85/8 79/83/7 61/64/7 62/66/8 
f 81/86/9 80/85/8 62/66/8 63/67/9 
f 82/87/10 81/86/9 63/67/9 64/68/10 
f 83/88/11 82/87/10 64/68/10 65/69/11 
f 84/89/12 83/88/11 65/69/11 66/70/12 
f 85/90/13 84/89/12 66/70/12 67/71/13 
f 86/91/14 85/90/13 67/71/13 68/72/14 
f 87/92/15 86/91/14 68/72/14 69/73/15 
f 88/93/16 87/92/15 69/73/15 70/74/16 
f 89/94/17 88/93/16 70/74/16 71/75/17 
f 90/95/18 89/94/17 71/75/17 72/76/18 
f 74/78/2 90/95/18 72/76/18 56/59/2 
f 91/96/1 92/97/2 74/78/2 73/77/1 
f 93/98/3 91/96/1 73/77/1 75/79/3 
f 94/99/4 93/98/3 75/79/3 76/80/4 
f 95/100/5 94/99/4 76/80/4 77/81/5 
f 96/101/6 95/100/5 77/81/5 78/82/6 
f 97/102/7 96/103/6 78/84/6 79/83/7 
f 98/104/8 97/102/7 79/83/7 80/85/8 
f 99/105/9 98/104/8 80/85/8 81/86/9 
f 100/106/10 99/105/9 81/86/9 82/87/10 
f 101/107/11 100/106/10 82/87/10 83/88/11 
f 102/108/12 101/107/11 83/88/11 84/89/12 
f 103/109/13 102/108/12 84/89/12 85/90/13 
f 104/110/14 103/109/13 85/90/13 86/91/14 
f 105/111/15 104/110/14 86/91/14 87/92/15 
f 106/112/16 105/111/15 87/92/15 88/93/16 
f 107/113/17 106/112/16 88/93/16 89/94/17 
f 108/114/18 107/113/17 89/94/17 90/95/18 
f 92/97/2 108/114/18 90/95/18 74/78/2 
s 1
f 34/115/19 32/116/19 30/117/19 3/118/19 
f 30/117/19 28/119/19 26/120/19 22/121/19 
f 26/120/19 24/122/19 22/121/19 
f 22/121/19 20/123/19 18/124/19 14/125/19 
f 18/124/19 16/126/19 14/125/19 
f 14/125/19 12/127/19 10/128/19 6/129/19 
f 10/128/19 8/130/19 6/129/19 
f 6/129/19 30/117/19 22/121/19 14/125/19 
f 6/129/19 4/131/19 3/118/19 30/117/19 
f 36/132/19 34/115/19 3/118/19 
f 91/133/20 93/134/20 94/135/20 108/136/20 
f 94/135/20 95/137/20 96/138/20 98/139/20 
f 96/138/20 97/140/20 98/139/20 
f 98/139/20 99/141/20 100/142/20 102/143/20 
f 100/142/20 101/144/20 102/143/20 
f 102/143/20 103/145/20 104/146/20 106/147/20 
f 104/146/20 105/148/20 106/147/20 
f 106/147/20 94/135/20 98/139/20 102/143/20 
f 106/147/20 107/149/20 108/136/20 94/135/20 
f 92/150/20 91/133/20 108/136/20 
# 102 polygons - 8 triangles

